%FSTAX23Y23*%
%MOIN*%
%SFA1B1*%

%IPPOS*%
%ADD13C,0.010000*%
%ADD20C,0.074000*%
%ADD21R,0.072840X0.072840*%
%ADD22C,0.072840*%
%ADD23C,0.055120*%
%ADD24C,0.060240*%
%ADD25R,0.060240X0.060240*%
%LNpcb1-1*%
%LPD*%
G54D13*
X00831Y02568D02*
X009Y025D01*
X006Y02568D02*
X00831D01*
X009Y0185D02*
Y025D01*
X00518Y02668D02*
X006D01*
X0045Y026D02*
X00518Y02668D01*
X0045Y0115D02*
Y026D01*
X005Y011D02*
X011D01*
X0045Y0115D02*
X005Y011D01*
X00468Y02768D02*
X006D01*
X004Y027D02*
X00468Y02768D01*
X004Y0105D02*
Y027D01*
Y0105D02*
X0045Y01D01*
X002Y0255D02*
X003D01*
X0035Y025*
Y0075D02*
Y025D01*
X004Y007D02*
X011D01*
X0035Y0075D02*
X004Y007D01*
X003Y0055D02*
X0035Y005D01*
X011*
X003Y0055D02*
Y0225D01*
X002Y023D02*
X00202Y02298D01*
X00252*
X003Y0225*
X0095Y018D02*
X011D01*
X009Y0185D02*
X0095Y018D01*
X001Y013D02*
X0015D01*
X002Y0135*
X00198Y02798D02*
X002Y028D01*
X00148Y02798D02*
X00198D01*
X001Y0275D02*
X00148Y02798D01*
X001Y0215D02*
Y0275D01*
Y0215D02*
X002Y0205D01*
Y0135D02*
Y0205D01*
X006Y02468D02*
X00731D01*
X008Y024*
Y013D02*
X009Y012D01*
X008Y013D02*
Y024D01*
X009Y012D02*
X011D01*
X0045Y01D02*
X011D01*
G54D20*
X002Y029D03*
Y028D03*
Y024D03*
Y023D03*
Y0265D03*
Y0255D03*
X011Y025D03*
Y027D03*
X006Y02268D03*
Y02368D03*
Y02468D03*
Y02568D03*
Y02668D03*
Y02768D03*
G54D21*
X008Y025D03*
G54D22*
X008Y027D03*
G54D23*
X006Y029D03*
X009D03*
G54D24*
X011Y019D03*
Y018D03*
Y017D03*
Y016D03*
Y015D03*
Y014D03*
Y013D03*
Y012D03*
Y011D03*
Y01D03*
Y009D03*
Y008D03*
Y007D03*
Y006D03*
Y005D03*
Y004D03*
Y003D03*
Y002D03*
Y001D03*
X001D03*
Y002D03*
Y003D03*
Y004D03*
Y005D03*
Y006D03*
Y007D03*
Y008D03*
Y009D03*
Y01D03*
Y011D03*
Y012D03*
Y013D03*
Y014D03*
Y015D03*
Y016D03*
Y017D03*
Y018D03*
G54D25*
X001Y019D03*
M02*