%FSTAX23Y23*%
%MOIN*%
%SFA1B1*%

%IPPOS*%
%ADD28C,0.002000*%
%LNpcb1-1*%
%LPD*%
G54D28*
X0018Y029D02*
X0022D01*
X002Y0288D02*
Y0292D01*
X0018Y028D02*
X0022D01*
X002Y0278D02*
Y0282D01*
X0018Y024D02*
X0022D01*
X002Y0238D02*
Y0242D01*
X0018Y023D02*
X0022D01*
X002Y0228D02*
Y0232D01*
X0018Y0265D02*
X0022D01*
X002Y0263D02*
Y0267D01*
X0018Y0255D02*
X0022D01*
X002Y0253D02*
Y0257D01*
X0108Y025D02*
X0112D01*
X011Y0248D02*
Y0252D01*
X0108Y027D02*
X0112D01*
X011Y0268D02*
Y0272D01*
X00778Y025D02*
X00821D01*
X008Y02478D02*
Y02521D01*
X00778Y027D02*
X00821D01*
X008Y02678D02*
Y02721D01*
X00583Y029D02*
X00616D01*
X006Y02883D02*
Y02916D01*
X00883Y029D02*
X00916D01*
X009Y02883D02*
Y02916D01*
X01079Y019D02*
X0112D01*
X011Y01879D02*
Y0192D01*
X01079Y018D02*
X0112D01*
X011Y01779D02*
Y0182D01*
X01079Y017D02*
X0112D01*
X011Y01679D02*
Y0172D01*
X01079Y016D02*
X0112D01*
X011Y01579D02*
Y0162D01*
X01079Y015D02*
X0112D01*
X011Y01479D02*
Y0152D01*
X01079Y014D02*
X0112D01*
X011Y01379D02*
Y0142D01*
X01079Y013D02*
X0112D01*
X011Y01279D02*
Y0132D01*
X01079Y012D02*
X0112D01*
X011Y01179D02*
Y0122D01*
X01079Y011D02*
X0112D01*
X011Y01079D02*
Y0112D01*
X01079Y01D02*
X0112D01*
X011Y00979D02*
Y0102D01*
X01079Y009D02*
X0112D01*
X011Y00879D02*
Y0092D01*
X01079Y008D02*
X0112D01*
X011Y00779D02*
Y0082D01*
X01079Y007D02*
X0112D01*
X011Y00679D02*
Y0072D01*
X01079Y006D02*
X0112D01*
X011Y00579D02*
Y0062D01*
X01079Y005D02*
X0112D01*
X011Y00479D02*
Y0052D01*
X01079Y004D02*
X0112D01*
X011Y00379D02*
Y0042D01*
X01079Y003D02*
X0112D01*
X011Y00279D02*
Y0032D01*
X01079Y002D02*
X0112D01*
X011Y00179D02*
Y0022D01*
X01079Y001D02*
X0112D01*
X011Y00079D02*
Y0012D01*
X00079Y001D02*
X0012D01*
X001Y00079D02*
Y0012D01*
X00079Y002D02*
X0012D01*
X001Y00179D02*
Y0022D01*
X00079Y003D02*
X0012D01*
X001Y00279D02*
Y0032D01*
X00079Y004D02*
X0012D01*
X001Y00379D02*
Y0042D01*
X00079Y005D02*
X0012D01*
X001Y00479D02*
Y0052D01*
X00079Y006D02*
X0012D01*
X001Y00579D02*
Y0062D01*
X00079Y007D02*
X0012D01*
X001Y00679D02*
Y0072D01*
X00079Y008D02*
X0012D01*
X001Y00779D02*
Y0082D01*
X00079Y009D02*
X0012D01*
X001Y00879D02*
Y0092D01*
X00079Y01D02*
X0012D01*
X001Y00979D02*
Y0102D01*
X00079Y011D02*
X0012D01*
X001Y01079D02*
Y0112D01*
X00079Y012D02*
X0012D01*
X001Y01179D02*
Y0122D01*
X00079Y013D02*
X0012D01*
X001Y01279D02*
Y0132D01*
X00079Y014D02*
X0012D01*
X001Y01379D02*
Y0142D01*
X00079Y015D02*
X0012D01*
X001Y01479D02*
Y0152D01*
X00079Y016D02*
X0012D01*
X001Y01579D02*
Y0162D01*
X00079Y017D02*
X0012D01*
X001Y01679D02*
Y0172D01*
X00079Y018D02*
X0012D01*
X001Y01779D02*
Y0182D01*
X00079Y019D02*
X0012D01*
X001Y01879D02*
Y0192D01*
X0058Y02268D02*
X0062D01*
X006Y02248D02*
Y02288D01*
X0058Y02368D02*
X0062D01*
X006Y02348D02*
Y02388D01*
X0058Y02468D02*
X0062D01*
X006Y02448D02*
Y02488D01*
X0058Y02568D02*
X0062D01*
X006Y02548D02*
Y02588D01*
X0058Y02668D02*
X0062D01*
X006Y02648D02*
Y02688D01*
X0058Y02768D02*
X0062D01*
X006Y02748D02*
Y02788D01*
M02*