%FSTAX23Y23*%
%MOIN*%
%SFA1B1*%

%IPPOS*%
%ADD13C,0.010000*%
%ADD20C,0.074000*%
%ADD21R,0.072840X0.072840*%
%ADD22C,0.072840*%
%ADD23C,0.055120*%
%ADD24C,0.060240*%
%ADD25R,0.060240X0.060240*%
%LNpcb1-1*%
%LPD*%
G54D13*
X004Y029D02*
X006D01*
X008Y027D02*
Y0275D01*
X009Y0285D02*
Y029D01*
X008Y0275D02*
X009Y0285D01*
X008Y022D02*
Y025D01*
X002Y024D02*
X0035D01*
X004Y0245*
Y027*
X002Y0265D02*
X0035D01*
X004Y027*
X002Y029D02*
X004D01*
X008Y0195D02*
X0085Y019D01*
X011*
X004Y023D02*
X00468Y02368D01*
X004Y004D02*
Y023D01*
X00468Y02368D02*
X006D01*
X001Y001D02*
X004Y004D01*
X008Y0195D02*
Y022D01*
X006Y02268D02*
X00731D01*
X008Y022*
X004Y027D02*
Y029D01*
G54D20*
X002Y029D03*
Y028D03*
Y024D03*
Y023D03*
Y0265D03*
Y0255D03*
X011Y025D03*
Y027D03*
X006Y02268D03*
Y02368D03*
Y02468D03*
Y02568D03*
Y02668D03*
Y02768D03*
G54D21*
X008Y025D03*
G54D22*
X008Y027D03*
G54D23*
X006Y029D03*
X009D03*
G54D24*
X011Y019D03*
Y018D03*
Y017D03*
Y016D03*
Y015D03*
Y014D03*
Y013D03*
Y012D03*
Y011D03*
Y01D03*
Y009D03*
Y008D03*
Y007D03*
Y006D03*
Y005D03*
Y004D03*
Y003D03*
Y002D03*
Y001D03*
X001D03*
Y002D03*
Y003D03*
Y004D03*
Y005D03*
Y006D03*
Y007D03*
Y008D03*
Y009D03*
Y01D03*
Y011D03*
Y012D03*
Y013D03*
Y014D03*
Y015D03*
Y016D03*
Y017D03*
Y018D03*
G54D25*
X001Y019D03*
M02*